<svg xmlns="http://www.w3.org/2000/svg" xmlns:xlink="http://www.w3.org/1999/xlink" width="32" height="788" viewBox="0 0 32 788"><svg width="32" height="32" viewBox="0 0 32 32"><path fill="#394043" d="M16 1.79c7.732 0 14 6.291 14 14.05 0 7.76-6.268 14.05-14 14.05S2 23.6 2 15.84C2 8.08 8.268 1.79 16 1.79z"/><path fill="#6b7072" d="M26.074 25.32c-.631-.608-1.319-1.699-4.666-2.196s-2.754-2.222-2.777-2.327c.006-.265-.017-1.248-.017-1.248s1.218-1.043 1.732-2.515c.808-.513 1.115-.585 1.249-1.177 0 0 .273-2.236-.595-2.236 0 0-.362.058-.246-.466s.217-2.035.159-2.618c-.058-.582-.029-2.246-1.244-2.479-.829-.155-.925.081-1.33.022s-.887-1.114-1.639-1.114c0 0-.909-.105-1.83.072-.935.18-1.883.642-1.905.646-1.215.233-1.784 1.805-1.841 2.387-.058.582.068 2.094.106 2.967.116.524-.289.524-.289.524-.728-.047-.401 2.236-.401 2.236.105.563-.038.843 1.04 1.279.655 1.553 1.819 2.495 1.819 2.495s.065.664.085 1.336c-.11-.055.351 1.718-2.997 2.215s-3.989 1.589-4.62 2.196c-.028.027-.053.069-.079.11 2.555 2.739 6.179 4.46 10.212 4.46 4.016 0 7.626-1.706 10.179-4.424a.662.662 0 0 0-.105-.145z"/><path fill="#394043" d="M12.608 22.93s.738.09 1.467.345a9.283 9.283 0 0 1 1.417.663h1.091s.812-.459 1.563-.729a5.377 5.377 0 0 1 1.246-.279.66.66 0 0 1 .646.672s.162.479.162.97a4.13 4.13 0 0 1-.162 1.046.66.66 0 0 1-.646.672s-.558-.033-1.177-.255c-.768-.276-1.629-.753-1.629-.753h-1.071s-.671.4-1.368.642c-.754.262-1.54.366-1.54.366a.66.66 0 0 1-.646-.672s-.162-.535-.162-1.054c0-.488.162-.962.162-.962a.66.66 0 0 1 .647-.672z"/></svg><svg width="32" height="32" viewBox="0 0 32 32" y="42"><path fill="#fff" d="M30 16c0 7.732-6.268 14-14 14S2 23.732 2 16 8.268 2 16 2s14 6.268 14 14z"/><path fill="#e5e5e5" d="M16 30.5C8.005 30.5 1.5 23.995 1.5 16S8.005 1.5 16 1.5 30.5 8.005 30.5 16 23.995 30.5 16 30.5zm0-28C8.556 2.5 2.5 8.556 2.5 16S8.556 29.5 16 29.5 29.5 23.444 29.5 16 23.444 2.5 16 2.5z"/><path fill="#222" d="M10.905 10.905a.518.518 0 0 1 .745 0l9.186 9.412c.206.211.206.552 0 .763s-.539.211-.745 0l-9.186-9.412a.548.548 0 0 1 0-.763z"/><path fill="#222" d="M11.153 20.317l9.186-9.412c.206-.211.539-.211.745 0s.206.552 0 .763l-9.186 9.412c-.206.211-.539.211-.745 0s-.205-.553 0-.763z"/></svg><svg width="32" height="32" viewBox="0 0 32 32" y="84"><path fill="#fff" d="M16 25.429a.5.5 0 0 1-.5-.5V2.313a.5.5 0 0 1 1 0v22.616a.5.5 0 0 1-.5.5z"/><path fill="#fff" d="M16.027 26.308a.5.5 0 0 1-.266-.076.524.524 0 0 1-.142-.1l-9.692-9.693a.5.5 0 0 1 .707-.707l9.38 9.381 9.351-9.351a.5.5 0 0 1 .707.707l-9.692 9.692a.495.495 0 0 1-.353.147zM30 29.946H2a.5.5 0 0 1 0-1h28a.5.5 0 0 1 0 1z"/></svg><svg width="32" height="32" viewBox="0 0 32 32" y="126"><path fill="#00ae66" d="M27.79 27.833H4.211A3.214 3.214 0 0 1 1 24.622V6.938a3.214 3.214 0 0 1 3.211-3.211h23.578c1.77 0 3.211 1.44 3.212 3.21v17.685a3.214 3.214 0 0 1-3.211 3.211zM4.211 5.727C3.543 5.727 3 6.271 3 6.938v17.684c0 .668.543 1.211 1.211 1.211H27.79c.668 0 1.211-.543 1.211-1.211V6.938a1.214 1.214 0 0 0-1.212-1.211H4.211z"/><path fill="#00ae66" d="M15.982 18.958a3.225 3.225 0 0 1-2.234-.883L2.002 5.397l1.467-1.359 11.703 12.634c.429.406 1.225.408 1.697-.044L28.53 4.038l1.467 1.359-11.704 12.634a3.337 3.337 0 0 1-2.311.927z"/></svg><svg width="32" height="32" viewBox="0 0 32 32" y="168"><path fill="#ff8333" d="M16 2c5.567 0 10.08 4.513 10.08 10.08S21.567 22.16 16 22.16 5.92 17.647 5.92 12.08 10.433 2 16 2z"/><path fill="#e4e4e4" d="M18.8 27.76h-5.6a1.12 1.12 0 1 0 0 2.24h5.6a1.12 1.12 0 1 0 0-2.24z"/><path fill="#de6616" d="M14.875 16.28h2.24v8.4h-2.24v-8.4z"/><path fill="#de6616" d="M15.97 17.298c-.487 0-.963-.155-1.336-.46l-2.727-2.785c-.346-.275-.581-.751-.581-1.246s.234-.971.644-1.304l.947 1.163c-.058.047-.091.099-.091.141s.033.094.091.141l2.727 2.786c.15.116.552.116.766-.058l2.602-2.67c.121-.105.154-.156.154-.198s-.033-.093-.091-.141l.945-1.164c.41.333.646.809.646 1.305s-.235.971-.646 1.304l-2.601 2.67a2.289 2.289 0 0 1-1.449.516z"/><path fill="#de6616" d="M19.547 12.834h-7.104a.75.75 0 0 1 0-1.5h7.104a.75.75 0 0 1 0 1.5z"/><path fill="#e4e4e4" d="M10.4 20.48h11.2v3.36a2.8 2.8 0 0 1-2.8 2.8h-5.6a2.8 2.8 0 0 1-2.8-2.8v-3.36z"/></svg><svg width="32" height="32" viewBox="0 0 32 32" y="210"><path fill="#999" d="M4.887 29.048l6.06-2.039a2.321 2.321 0 0 0 2.247-.526L29.36 10.48a1.977 1.977 0 0 0 0-2.914l-4.355-4.088c-.847-.797-2.221-.803-3.074-.022l-17.2 15.122a1.978 1.978 0 0 0-.533 2.095l-2.121 5.75a1.258 1.258 0 0 0 .331 1.357l1.023.962c.384.359.946.477 1.456.306zM23.442 5.716l3.528 3.319-15.365 15.212-4.464-4.197L23.442 5.716zM6.307 22.971l2.207 2.077-3.396 1.142 1.189-3.219z"/></svg><svg width="32" height="32" viewBox="0 0 32 32" y="252"><path fill="#ffddc9" d="M30 15.462c0 7.732-6.268 14-14 14s-14-6.268-14-14 6.268-14 14-14 14 6.268 14 14z"/><path fill="#ffae7e" d="M26.537 24.66c-.462-1.292-1.566-2.076-2.899-2.412-4.655-1.177-4.553-1.996-4.553-1.996s1.574.32 2.755-.094c1.562-.548.712-2.73.712-2.73 1.013-.113.506-1.298-.244-2.221-.749-.922-1.172-4.734-2.437-7.077-.904-1.672-3.487-1.826-4.031-1.826s-1.931-.094-3.244 1.355c-1.312 1.449-1.95 4.988-2.118 6.099s-1.481 2.805-1.462 3.238c.019.432.525.602.525.602-.15.451-.469 1.299.394 2.127s3.356.565 3.356.565c-.675.978-3.41 1.506-5.735 2.258-1.2.389-1.778 1.329-2.059 2.148 2.566 2.916 6.314 4.765 10.503 4.765 4.207.001 7.97-1.864 10.537-4.801z"/></svg><svg width="32" height="32" viewBox="0 0 32 32" y="294"><path fill="#198c5b" d="M10.351 3.261L25.63 4.552c.612.052 1.064.564 1.01 1.144l-1.826 19.566c-.054.58-.594 1.009-1.206.957l-15.279-1.29c-.612-.052-1.064-.564-1.01-1.144L9.144 4.218c.054-.58.595-1.008 1.207-.957z"/><path fill="#00af63" d="M7.582 3.263h15.435c.619 0 1.12.501 1.12 1.12v20.851a1.12 1.12 0 0 1-1.12 1.12H7.582a1.12 1.12 0 0 1-1.12-1.12V4.383a1.12 1.12 0 0 1 1.12-1.12z"/><path fill="#99dfc1" d="M9.56 17.263h5.32a.56.56 0 0 0 .56-.56v-.28a.56.56 0 0 0-.56-.56H9.56a.56.56 0 0 0-.56.56v.28c0 .309.251.56.56.56zm0-4.2h11.2a.56.56 0 0 0 .56-.56v-.28a.56.56 0 0 0-.56-.56H9.56a.56.56 0 0 0-.56.56v.28c0 .309.251.56.56.56zm0-4.2h11.2a.56.56 0 0 0 .56-.56v-.28a.56.56 0 0 0-.56-.56H9.56a.56.56 0 0 0-.56.56v.28c0 .309.251.56.56.56zm19.32 14.56H3.12A1.12 1.12 0 0 0 2 24.543v3.08c0 .619.501 1.12 1.12 1.12h25.76a1.12 1.12 0 0 0 1.12-1.12v-3.08a1.12 1.12 0 0 0-1.12-1.12z"/><path fill="#e4e4e4" d="M2 23.423h28v5.32H2v-5.32z"/></svg><svg width="32" height="32" viewBox="0 0 32 32" y="336"><path fill="#00ae66" d="M24.105 8.432c.522 0 .947.425.947.947v12.526a.948.948 0 0 1-.947.947h-12.66l-3.024 2.684v-2.685H4.947A.945.945 0 0 1 4 21.906V9.38c0-.522.425-.947.947-.947h19.158zm0-2H4.947A2.948 2.948 0 0 0 2 9.38v12.526a2.947 2.947 0 0 0 2.947 2.947h1.474v5.135l5.784-5.135h11.901a2.947 2.947 0 0 0 2.947-2.947V9.38a2.948 2.948 0 0 0-2.948-2.948z"/><path fill="#00ae66" d="M8.632 13.801a1.474 1.474 0 1 1 0 2.948 1.474 1.474 0 0 1 0-2.948zM14.526 13.801a1.474 1.474 0 1 1 0 2.948 1.474 1.474 0 0 1 0-2.948zM20.421 13.801a1.474 1.474 0 1 1 0 2.948 1.474 1.474 0 0 1 0-2.948z"/><path fill="#00ae66" d="M26.978 22.109v-2c1.076 0 1.212-.136 1.212-1.211v-14c0-.452-.157-1.21-1.212-1.21H6.346c-1.076 0-1.211.136-1.211 1.21h-2c0-2.19 1.021-3.21 3.211-3.21h20.631c1.892 0 3.212 1.32 3.212 3.21v14c0 2.191-1.02 3.211-3.211 3.211z"/></svg><svg width="32" height="32" viewBox="0 0 32 32" y="378"><path fill="#00ae66" d="M6.793 4c.266 0 .806.32 1.526 1.216 1.285 1.599 1.607 2.269 1.686 2.52-.139.18-.457.494-.699.733l-.321.318c-.598.597-.914 1.378-.914 2.259 0 1.284.575 3.333 5.064 7.819 4.49 4.487 6.538 5.063 7.821 5.063.878 0 1.657-.314 2.257-.911l.318-.322c.239-.243.553-.562.734-.701.251.079.921.401 2.519 1.687.88.707 1.205 1.244 1.216 1.511.021.509-.963 1.444-1.615 2.063-.206.195-.406.386-.587.567-.002.002-.243.178-.994.178-2.846 0-8.05-2.332-13.261-7.542C4.37 13.284 3.466 7.094 4.17 6.209c.187-.187.378-.388.574-.594C5.356 4.972 6.28 4 6.793 4zm0-2c-1.624 0-2.91 1.667-4.038 2.795-2.028 2.03-.107 9.596 7.372 17.077C15.778 27.52 21.478 30 24.804 30c1.077 0 1.905-.26 2.402-.757 1.76-1.759 4.833-3.902.831-7.12-1.93-1.552-3.027-2.15-3.849-2.15-.883 0-1.449.69-2.39 1.63-.225.224-.51.325-.843.325-1.549 0-4.126-2.197-6.407-4.478-2.772-2.77-5.421-5.979-4.151-7.248 1.815-1.816 2.697-2.235-.52-6.238C8.722 2.525 7.705 2 6.793 2z"/></svg><svg width="32" height="32" viewBox="0 0 32 32" y="420"><path fill="#ccc" d="M15.165 1.973h1.965c.035.046.088.043.138.047.832.081 1.653.218 2.459.447 3.436.977 6.138 2.955 8.078 5.956 1.102 1.704 1.774 3.575 2.063 5.584a.161.161 0 0 0 .016.114c.003.072-.003.145.033.211l-.002 3.175c-.035.048-.021.105-.033.158-.033.044-.02.093-.014.14a14.422 14.422 0 0 1-.706 2.867 13.979 13.979 0 0 1-1.209 2.503 1.32 1.32 0 0 1-2.269-.006c-.292-.484-.241-.983.029-1.444 1.267-2.165 1.801-4.489 1.539-6.985-.232-2.207-1.041-4.187-2.453-5.902-2.186-2.655-5.015-4.05-8.447-4.181-2.574-.098-4.913.646-6.99 2.16C5.776 9.43 4.083 13.83 4.956 18.18c1.145 5.71 6.532 9.627 12.33 8.959a11.291 11.291 0 0 0 4.478-1.506c.117-.069.237-.126.362-.173a1.317 1.317 0 0 1 1.77 1.005c.095.549-.109 1.075-.735 1.448a13.881 13.881 0 0 1-6.001 1.929c-.057-.008-.113-.012-.165.022-.655.033-1.309.033-1.964-.002-.052-.032-.109-.028-.166-.02a13.816 13.816 0 0 1-2.497-.437c-4.792-1.328-8.423-4.918-9.792-9.678a15.329 15.329 0 0 1-.437-2.145c.006-.171-.037-.336-.05-.505-.002-.031-.011-.09-.063-.028v-.027c.046.038.052-.002.052-.031 0-.061-.006-.122-.01-.183l-.014-.27.001-1.238.093-1.054.031-.213C2.614 11 3.888 8.375 6.02 6.173a13.683 13.683 0 0 1 3.03-2.349.07.07 0 0 0 .066-.038l.418-.231c.03.002.052-.012.068-.036l.362-.181a.203.203 0 0 0 .124-.058l.172-.078c.029.004.051-.009.07-.03l.307-.131c.029.005.051-.008.071-.028l.064-.026c.029.005.051-.008.071-.028l.064-.026c.029.006.051-.008.071-.027l.144-.055c.029.006.051-.007.071-.027l.144-.053a.289.289 0 0 0 .152-.054l.332-.111a.219.219 0 0 0 .139-.045l.13-.037a.215.215 0 0 0 .14-.042l.049-.011c.024.008.042-.001.058-.018l.049-.012c.05.001.099-.005.14-.039l.049-.01c.024.008.043 0 .058-.018l.049-.01c.024.008.043.001.058-.017l.049-.009c.023.009.043.002.058-.017l.05-.009c.032.01.06-.001.085-.021l.051-.008c.023.009.043.003.059-.015l.076-.013c.023.01.042.004.059-.014l.076-.013c.023.011.042.004.059-.014l.076-.012c.032.011.06.001.085-.018l.05-.007a.08.08 0 0 0 .085-.018l.076-.011c.032.011.06.003.085-.017l.076-.01c.04.012.077.002.112-.019l.076-.009a.13.13 0 0 0 .112-.017l.103-.01a.187.187 0 0 0 .139-.018l.103-.009a.182.182 0 0 0 .139-.017l.13-.01c.121.001.242.01.356-.039z"/><path fill="#a6a6aa" d="M2.027 15.3l.028.001-.001 1.238h-.028l.001-1.239z"/><path fill="#b3b3b9" d="M15.165 1.973c-.114.049-.235.04-.355.04l.005-.04h.35z"/><path fill="#c7c7c7" d="M2.027 16.538h.028l.014.27-.041-.001-.001-.269z"/><path fill="#d5d5d5" d="M2.027 16.808l.041.001c.004.061.01.122.01.183 0 .029-.005.069-.052.031l.001-.215z"/><path fill="#b3b3b9" d="M14.541 2.04c.002-.022.022-.043.005-.067h.108l.026.05a.187.187 0 0 1-.139.017z"/><path fill="#fdfdfd" d="M14.68 2.023l-.026-.05h.162l-.006.04-.13.01z"/><path fill="#d2d2d2" d="M29.946 1.973l-.001.055-.046.001-.007-.056h.054z"/><path fill="#aeaeae" d="M17.237 29.867a.243.243 0 0 1-.242-.002c.052-.033.108-.029.165-.022l.077.024zM15.032 29.862c-.08.049-.161.044-.242.004l.076-.024c.057-.007.113-.011.166.02z"/><path fill="#c7c7c7" d="M29.882 17.664c.049.044.049.091.009.14l-.012.001-.012-.001c-.005-.047-.018-.096.015-.14z"/><path fill="#b3b3b9" d="M14.299 2.066c.041-.045.089-.043.139-.018a.188.188 0 0 1-.139.018zM11.338 2.77c.039-.052.092-.063.152-.054a.28.28 0 0 1-.152.054zM11.822 2.606c.037-.045.083-.059.139-.045a.225.225 0 0 1-.139.045zM12.091 2.524a.125.125 0 0 1 .14-.042.215.215 0 0 1-.14.042zM12.386 2.441c.039-.041.085-.056.14-.039-.04.034-.089.039-.14.039zM14.083 2.094c.032-.042.07-.043.112-.017a.13.13 0 0 1-.112.017zM13.895 2.121c.031-.042.069-.045.112-.019a.135.135 0 0 1-.112.019zM9.965 3.337c.028-.048.07-.066.124-.058a.2.2 0 0 1-.124.058z"/><path fill="#d2d2d2" d="M29.891 14.007c.039.041.034.078-.007.114a.161.161 0 0 1-.016-.114.089.089 0 0 1 .023 0z"/><path fill="#b3b3b9" d="M13.733 2.148c.022-.038.051-.043.085-.017a.085.085 0 0 1-.085.017zM13.572 2.177c.022-.038.05-.044.085-.018a.085.085 0 0 1-.085.018zM13.437 2.201c.022-.037.05-.043.085-.018-.025.02-.053.029-.085.018zM12.899 2.312c.02-.038.048-.046.085-.021-.025.021-.052.031-.085.021zM13.302 2.227c.014-.03.033-.037.059-.014-.016.018-.036.024-.059.014zM13.168 2.254c.014-.03.033-.037.059-.014-.017.017-.036.024-.059.014zM13.033 2.283c.013-.031.032-.038.059-.015-.016.017-.035.024-.059.015zM12.791 2.337c.012-.031.031-.039.058-.017-.015.019-.034.026-.058.017zM12.684 2.364c.012-.031.031-.039.058-.017-.016.018-.035.025-.058.017zM12.576 2.392c.012-.031.03-.04.058-.018-.015.018-.034.026-.058.018zM12.279 2.471c.012-.031.03-.04.058-.018-.015.017-.034.026-.058.018zM9.051 3.824c.011-.032.033-.045.066-.038-.015.025-.037.039-.066.038zM9.535 3.554c.012-.032.035-.044.068-.036-.016.024-.038.038-.068.036zM10.261 3.201c.014-.033.037-.042.07-.03-.019.021-.041.034-.07.03zM10.638 3.04c.014-.032.039-.04.071-.028-.019.02-.041.034-.071.028zM10.773 2.986c.014-.033.039-.041.071-.028-.02.02-.042.033-.071.028zM10.907 2.933c.015-.033.039-.04.071-.027-.019.019-.041.032-.071.027zM11.122 2.85c.015-.033.039-.04.071-.027-.019.02-.041.033-.071.027z"/><path fill="#c7c7c7" d="M29.9 29.784l.046.001c.002.057 0 .111-.079.109l-.003-.024c.032-.021.028-.056.036-.086z"/><path fill="#aeaeae" d="M2.186 29.868l-.026.027-.024-.028.05.001zM29.864 29.869l.003.024-.029.003.001-.028a.103.103 0 0 1 .025.001z"/><path fill="#ccc" d="M14.796 18.389c.013-.435-.023-.974.017-1.512.044-.585.284-1.072.751-1.433.55-.427 1.145-.788 1.716-1.185.133-.093.258-.194.37-.311.548-.577.696-1.834-.269-2.43-.291-.18-.6-.304-.935-.36a2.852 2.852 0 0 0-1.494.157c-.7.263-1.079.788-1.213 1.506-.068.363-.08.731-.079 1.099 0 .147.062.338-.023.43-.087.093-.28.027-.427.028-.655.003-1.31.001-1.965.002-.067 0-.12.004-.119-.094.01-.732.03-1.462.191-2.181.168-.751.552-1.384 1.045-1.962.936-1.097 2.145-1.567 3.562-1.551.765.009 1.515.112 2.207.462 1.368.691 2.321 1.729 2.596 3.278.204 1.153-.054 2.204-.848 3.094-.294.33-.639.602-1.007.846-.277.183-.569.342-.832.546-.474.367-.725.835-.707 1.449.017.574.001 1.149.006 1.723.001.101-.028.128-.129.127-.763-.004-1.526-.004-2.288 0-.103.001-.127-.031-.127-.13.004-.499.001-.997.001-1.598zM16.073 21.11a1.299 1.299 0 0 1 1.3 1.3c0 .722-.597 1.316-1.311 1.306a1.304 1.304 0 1 1 .011-2.606z"/></svg><svg width="32" height="32" viewBox="0 0 32 32" y="462"><path fill="#ff7611" d="M16 5.664l3.255 6.903 7.493 1.145-5.434 5.558.164.999 1.099 6.697L16 23.341l-6.579 3.626 1.263-7.699-5.448-5.555 7.508-1.146.454-.963L16 5.664zM16 2c-.337 0-.612.242-.825.724l-3.786 8.027-8.447 1.289c-.628.106-.942.376-.942.811 0 .248.14.53.421.848l6.126 6.246L7.1 28.766a3.039 3.039 0 0 0-.033.353c-.001.246.058.455.176.625s.295.256.53.256c.201 0 .425-.07.672-.212L16 25.624l7.555 4.164c.235.142.459.212.672.212a.584.584 0 0 0 .513-.256 1.08 1.08 0 0 0 .176-.625c0-.153-.006-.271-.017-.353l-1.447-8.821 6.107-6.246c.292-.306.437-.588.437-.848H30c0-.435-.314-.705-.942-.811l-8.447-1.289-3.786-8.027C16.612 2.242 16.337 2 16 2z"/></svg><svg width="32" height="32" viewBox="0 0 32 32" y="504"><path fill="#e4e4e4" d="M3.12 10.925h25.76c.619 0 1.12.501 1.12 1.12V27.76a1.12 1.12 0 0 1-1.12 1.12H3.12A1.12 1.12 0 0 1 2 27.76V12.045c0-.619.501-1.12 1.12-1.12z"/><path fill="#f0f0f0" d="M2.564 10.925h12.971c.311 0 .564.501.564 1.12V28.88H2.564c-.312 0-.564-.502-.564-1.12V12.045c0-.619.252-1.12.564-1.12z"/><path fill="#f2f2f2" d="M2 20.359l14.099-3.977L30 16.396v1.585l-13.949-.007L2 21.945v-1.586z"/><path fill="#f8f8f8" d="M16.051 17.974L2 21.945V20.36l14.099-3.977z"/><path fill="#659bf9" d="M16 3.12c4.02 0 7.279 3.314 7.279 7.401 0 4.869-6.513 11.642-7.279 11.642S8.721 15.39 8.721 10.521C8.721 6.434 11.98 3.12 16 3.12z"/><path fill="#517cc7" d="M16 7.6a2.8 2.8 0 1 1-.001 5.601A2.8 2.8 0 0 1 16 7.6z"/><path fill="#f8f8f8" d="M4 10.925h1.6l3 8.245H7l-3-8.245z"/><path fill="#f2f2f2" d="M24.4 17.977h2.004V28.88H24.4V17.977z"/><path fill="#cdcdcd" d="M12.592 23.332h6.816a.793.793 0 0 1 0 1.584h-6.816a.793.793 0 0 1 0-1.584z"/><path fill="#d8d8d8" d="M12.592 23.332h3.507v1.584h-3.507c-.279.068-.792-.276-.792-.792 0-.515.45-.803.792-.792z"/></svg><svg width="32" height="32" viewBox="0 0 32 32" y="546"><path fill="#e4e4e4" d="M8.158 12.64h15.681c.619 0 1.12.501 1.12 1.12v8.961a5.04 5.04 0 0 1-5.04 5.04h-7.841a5.04 5.04 0 0 1-5.04-5.04V13.76c0-.618.502-1.12 1.12-1.12z"/><path fill="#3e4953" d="M5.524 15.479h-.446V9h-.56v6.479h-.455l-.662 8.77.823.694v-2.76l.619 2.957c.121.008 1.783 1.293 1.624-.891-.717-9.835-.943-8.77-.943-8.77zm10.46-.357l-8.942-2.76v6.242s1.454.151 2.853.483c2.342.555 6.108 3.632 6.108 3.632s3.795-3.025 6.062-3.632a17.136 17.136 0 0 1 2.899-.483v-6.242l-8.98 2.76z"/><path fill="#556370" d="M16 4.239l14 6.204L16 16.8 2 10.442l14-6.203z"/><path fill="#3e4953" d="M16.276 8.998c0-.155-.934-.282-1.109-.282H4.835c-.175 0-.317.126-.317.282zM4.518 8.998c0 .155.142.282.317.282h11.441c-.011 0 0-.126 0-.282z"/></svg><svg width="32" height="32" viewBox="0 0 32 32" y="588"><path fill="#b2e7d1" d="M6.869 23.325c.501-.181 2.838-.34 3.389-.479a4.457 4.457 0 0 0 1.442-.621c.323-.206.574-.406.752-.595.178-.19.307-.379.382-.568.077-.19.115-.388.115-.596s-.009-.441-.025-.699c-.034-.38-.157-.673-.37-.88s-.447-.423-.702-.647c-.137-.104-.251-.255-.344-.453s-.182-.401-.268-.608a6.526 6.526 0 0 1-.23-.751 2.572 2.572 0 0 1-.154-.181c-.05-.087-.11-.203-.178-.35s-.143-.357-.228-.634c-.086-.276-.141-.522-.167-.738s-.022-.401.013-.556c.017-.189.06-.354.127-.492 0-.604.033-1.208.102-1.812.068-.5.179-1.044.331-1.63.154-.587.4-1.113.741-1.579.307-.431.637-.789.994-1.074s.727-.505 1.11-.66a5.204 5.204 0 0 1 1.16-.324c.39-.06.765-.09 1.123-.09.39.034.71.082.955.142.247.061.447.134.599.22.154.086.285.19.396.31.11.121.225.242.345.363h.484c.153 0 .302.021.446.064s.289.126.434.246.302.294.472.518c.392.517.68 1.082.867 1.695s.324 1.194.409 1.747c.085.638.135 1.268.153 1.889.033.086.06.19.076.311s.03.267.039.44c.008.172-.005.388-.039.647a3.702 3.702 0 0 1-.153.816 1.483 1.483 0 0 1-.23.453.797.797 0 0 1-.28.259 6.526 6.526 0 0 1-.23.751c-.085.206-.175.41-.268.608-.094.198-.209.35-.344.453-.289.241-.527.444-.714.608-.187.163-.315.444-.382.84a2.607 2.607 0 0 0-.052.724 2.134 2.134 0 0 0 .727 1.45c.247.225.591.423 1.033.595.392.156.821.298 1.288.427s2.727.276 3.161.439c.434.164.821.376 1.161.635.268.204.454.47.595.77A13.913 13.913 0 0 0 30 16c0-7.732-6.268-14-14-14S2 8.268 2 16c0 3.297 1.147 6.323 3.055 8.715.121-.256.276-.48.487-.652.383-.31.824-.556 1.327-.738z"/><path fill="#47c591" d="M14.548 29.925a13.967 13.967 0 0 1-9.493-5.21z"/><path fill="#47c591" d="M14.548 29.925l.704-4.98h-.249l-.499-1.557h2.993l-.499 1.557h-.249l.704 4.98c3.833-.395 7.2-2.341 9.482-5.194a2.013 2.013 0 0 0-.595-.77 4.536 4.536 0 0 0-1.161-.635c-.434-.163-2.693-.31-3.161-.439a12.382 12.382 0 0 1-1.288-.427c-.442-.172-.786-.37-1.033-.595a2.134 2.134 0 0 1-.727-1.45c-.016-.241 0-.482.052-.724.068-.397.195-.677.382-.84a35.1 35.1 0 0 1 .714-.608c.135-.104.25-.255.344-.453.093-.198.183-.401.268-.608.085-.224.162-.475.23-.751a.788.788 0 0 0 .28-.259c.085-.104.162-.255.23-.453.068-.199.119-.471.153-.816.034-.258.047-.475.039-.647a5.104 5.104 0 0 0-.039-.44 1.323 1.323 0 0 0-.076-.311 18.04 18.04 0 0 0-.153-1.889c-.085-.552-.222-1.134-.409-1.747s-.475-1.178-.867-1.695c-.17-.224-.327-.398-.472-.518s-.289-.203-.434-.246a1.552 1.552 0 0 0-.446-.064h-.484c-.119-.121-.234-.242-.345-.363s-.242-.224-.396-.31a2.38 2.38 0 0 0-.599-.22 6.558 6.558 0 0 0-.955-.142c-.358 0-.732.03-1.123.09-.39.061-.779.168-1.16.324a4.449 4.449 0 0 0-1.11.66 5.218 5.218 0 0 0-.994 1.074 4.636 4.636 0 0 0-.741 1.579c-.152.586-.263 1.13-.331 1.63a15.95 15.95 0 0 0-.102 1.812c-.068.138-.11.302-.127.492-.035.155-.039.341-.013.556s.08.462.167.738c.085.276.161.488.228.634s.128.263.178.35c.069.086.119.147.154.181.068.276.145.527.23.751.085.206.174.41.268.608.093.198.208.35.344.453.255.224.489.44.702.647s.335.5.37.88c.016.258.025.492.025.699s-.038.406-.115.596c-.076.19-.204.378-.382.568s-.43.389-.752.595a4.48 4.48 0 0 1-1.442.621c-.551.139-2.889.298-3.389.479a4.566 4.566 0 0 0-1.327.737 1.827 1.827 0 0 0-.487.652 13.964 13.964 0 0 0 9.49 5.208z"/><path fill="#b2e7d1" d="M16.998 24.944l.499-1.557h-2.994l.499 1.557h1.746zM15.252 24.944l-.704 4.98a13.933 13.933 0 0 0 2.904.001l-.704-4.98h-1.496z"/></svg><svg width="32" height="32" viewBox="0 0 32 32" y="630"><path fill="#999" d="M9.493 17.99H21.44v-2.987H9.493v2.987zm0 5.975H21.44v-2.987H9.493v2.987zm6.969-14.934H9.493v2.987h6.969V9.031zm3.983-6.969h-.995v6.969h7.964l-6.969-6.969z"/><path fill="#999" d="M20.051 4.267l2.113 2.05 2.049 2.11v19.307H6.72V4.267h13.331zm1.297-3.2H3.52v29.867h23.893V7.129l-2.987-3.075-3.078-2.987z"/></svg><svg width="32" height="32" viewBox="0 0 32 32" y="672"><path fill="#999" d="M3.953 2L2 3.953 28.047 30 30 28.046 3.953 2z"/><path fill="#999" d="M28.047 2L30 3.953 3.953 30 2 28.046 28.047 2z"/></svg><svg width="32" height="32" viewBox="0 0 32 32" y="714"><path opacity=".75" d="M16 2c7.732 0 14 6.268 14 14s-6.268 14-14 14S2 23.732 2 16 8.268 2 16 2z"/><path fill="#fff" d="M10.922 21.133h-.755c.314-1.207.233-2.333.233-2.333a.7.7 0 1 1 1.4 0v2.333h-.485z"/><path fill="#fff" d="M10.867 14.133h.467v4.433h-.467v-4.433z"/><path fill="#fff" d="M16.84 10.791l5.342 2.382c.466.208.466.545 0 .752l-5.342 2.382c-.466.208-1.221.208-1.687 0l-5.342-2.382c-.466-.208-.466-.545 0-.752l5.342-2.382c.466-.208 1.222-.208 1.687 0z"/><path fill="#fff" d="M16.844 16.926c-.466.208-1.221.208-1.687 0l-2.423-1.081v3.399c0 .449.334.813.747.813 0 0 .658.61 2.526.61 1.865 0 2.514-.61 2.514-.61.412 0 .747-.364.747-.813v-3.399l-2.424 1.081z"/></svg></svg>